<svg width="24" height="20" viewBox="0 0 78 64" fill="none" xmlns="http://www.w3.org/2000/svg">
<path d="M28.6133 0C13.841 6.56427 0 22.1935 0 42.3708C0 54.8351 8.07857 63.9 17.9957 63.9C28.3824 63.9 33.6912 56.1948 33.6912 49.1695C33.6912 41.0189 27.9208 34.6656 19.3806 34.6656C16.8416 34.6656 14.3027 35.3455 12.9178 36.4786C12.9178 26.5071 20.9884 14.7227 33.4524 8.61169L28.6133 0ZM72.922 0C58.1498 6.56427 44.078 22.2013 44.078 42.3708C44.078 54.8351 52.3873 63.9 62.3045 63.9C72.6912 63.9 78 56.1948 78 49.1695C78 41.0189 72.2296 34.6656 63.4586 34.6656C60.9196 34.6656 58.6114 35.3455 57.2265 36.4786C57.2265 26.5071 65.3051 14.7227 77.7612 8.61169L72.922 0Z" fill='#4185CA' />
</svg>
