<svg width="380" height="162" viewBox="0 0 380 162" fill="none" xmlns="http://www.w3.org/2000/svg">
<path d="M175.531 112.952C203.25 112.952 225.72 90.4998 225.72 62.8039C225.72 35.1081 203.25 12.6561 175.531 12.6561C147.812 12.6561 125.342 35.1081 125.342 62.8039C125.342 90.4998 147.812 112.952 175.531 112.952Z" fill="#394149"/>
<path d="M287.727 112.952C315.446 112.952 337.916 90.4998 337.916 62.8039C337.916 35.1081 315.446 12.6561 287.727 12.6561C260.008 12.6561 237.537 35.1081 237.537 62.8039C237.537 90.4998 260.008 112.952 287.727 112.952Z" fill="#394149"/>
<path d="M113.524 12.6561H13.1939V112.904H113.524V12.6561Z" fill="#394149"/>
</svg>
